<svg width="25" height="30" viewBox="0 0 25 30" fill="none" xmlns="http://www.w3.org/2000/svg">
<path d="M6.9046 12.5239V5.72644H12.8879C13.4579 5.72644 14.0073 5.77387 14.5364 5.86894C15.0655 5.96381 15.5337 6.13331 15.9408 6.37762C16.3477 6.62194 16.6734 6.96112 16.9177 7.39519C17.1618 7.82944 17.284 8.38575 17.284 9.06394C17.284 10.2851 16.9177 11.1671 16.1849 11.7097C15.4524 12.2526 14.5162 12.5239 13.3764 12.5239H6.9046ZM0.514038 0.760498V29.823H14.5975C15.9001 29.823 17.1687 29.6602 18.4034 29.3346C19.6381 29.0089 20.737 28.5069 21.7004 27.8286C22.6636 27.1502 23.4303 26.2749 24.0001 25.2032C24.5701 24.1312 24.8549 22.8626 24.8549 21.3973C24.8549 19.5791 24.4139 18.0257 23.5321 16.7368C22.6501 15.4477 21.3136 14.5455 19.5226 14.0299C20.8252 13.4059 21.809 12.6052 22.4739 11.6284C23.1385 10.6515 23.471 9.4305 23.471 7.965C23.471 6.60825 23.2471 5.46862 22.7994 4.54594C22.3516 3.62344 21.7207 2.88394 20.9065 2.32762C20.0926 1.77131 19.1157 1.371 17.9759 1.12687C16.8363 0.88256 15.5744 0.760498 14.1905 0.760498H0.514038ZM6.9046 24.8571V16.8791H13.8648C15.2487 16.8791 16.3614 17.1979 17.2027 17.8357C18.0438 18.4734 18.4645 19.5384 18.4645 21.0309C18.4645 21.7909 18.3355 22.4149 18.0777 22.9033C17.8199 23.3917 17.474 23.7786 17.0397 24.0634C16.6057 24.3484 16.1035 24.5518 15.5337 24.6741C14.9637 24.7959 14.3669 24.8571 13.7427 24.8571H6.9046Z" fill="white"/>
</svg>
