<svg width="40" height="40" viewBox="0 0 40 40" fill="none" xmlns="http://www.w3.org/2000/svg">
<g filter="url(#filter0_d_5_304)">
<path fill-rule="evenodd" clip-rule="evenodd" d="M20 6C15.6547 6 15.1098 6.01842 13.4032 6.09628C11.7002 6.17396 10.5371 6.44446 9.51939 6.84001C8.46725 7.24884 7.57497 7.79593 6.68542 8.68542C5.79593 9.57497 5.24884 10.4673 4.84001 11.5194C4.44446 12.5371 4.17396 13.7002 4.09628 15.4032C4.01842 17.1098 4 17.6547 4 22C4 26.3453 4.01842 26.8902 4.09628 28.5968C4.17396 30.2998 4.44446 31.4629 4.84001 32.4806C5.24884 33.5327 5.79593 34.425 6.68542 35.3146C7.57497 36.2041 8.46725 36.7512 9.51939 37.1601C10.5371 37.5555 11.7002 37.826 13.4032 37.9037C15.1098 37.9816 15.6547 38 20 38C24.3453 38 24.8902 37.9816 26.5968 37.9037C28.2998 37.826 29.4629 37.5555 30.4806 37.1601C31.5327 36.7512 32.425 36.2041 33.3146 35.3146C34.2041 34.425 34.7512 33.5327 35.1601 32.4806C35.5555 31.4629 35.826 30.2998 35.9037 28.5968C35.9816 26.8902 36 26.3453 36 22C36 17.6547 35.9816 17.1098 35.9037 15.4032C35.826 13.7002 35.5555 12.5371 35.1601 11.5194C34.7512 10.4673 34.2041 9.57497 33.3146 8.68542C32.425 7.79593 31.5327 7.24884 30.4806 6.84001C29.4629 6.44446 28.2998 6.17396 26.5968 6.09628C24.8902 6.01842 24.3453 6 20 6ZM20 8.88288C24.2722 8.88288 24.7782 8.8992 26.4654 8.97618C28.0254 9.04731 28.8725 9.30796 29.4363 9.52708C30.1832 9.81733 30.7162 10.164 31.276 10.724C31.836 11.2838 32.1827 11.8168 32.4729 12.5637C32.692 13.1275 32.9527 13.9746 33.0238 15.5346C33.1008 17.2218 33.1171 17.7278 33.1171 22C33.1171 26.2722 33.1008 26.7782 33.0238 28.4654C32.9527 30.0254 32.692 30.8725 32.4729 31.4363C32.1827 32.1832 31.836 32.7162 31.276 33.276C30.7162 33.836 30.1832 34.1827 29.4363 34.4729C28.8725 34.692 28.0254 34.9527 26.4654 35.0238C24.7785 35.1008 24.2725 35.1171 20 35.1171C15.7275 35.1171 15.2216 35.1008 13.5346 35.0238C11.9746 34.9527 11.1275 34.692 10.5637 34.4729C9.81682 34.1827 9.28383 33.836 8.72397 33.276C8.16411 32.7162 7.81733 32.1832 7.52708 31.4363C7.30796 30.8725 7.04731 30.0254 6.97618 28.4654C6.8992 26.7782 6.88288 26.2722 6.88288 22C6.88288 17.7278 6.8992 17.2218 6.97618 15.5346C7.04731 13.9746 7.30796 13.1275 7.52708 12.5637C7.81733 11.8168 8.16404 11.2838 8.72397 10.724C9.28383 10.164 9.81682 9.81733 10.5637 9.52708C11.1275 9.30796 11.9746 9.04731 13.5346 8.97618C15.2218 8.8992 15.7278 8.88288 20 8.88288Z" fill="url(#paint0_linear_5_304)"/>
</g>
<g filter="url(#filter1_d_5_304)">
<path fill-rule="evenodd" clip-rule="evenodd" d="M20 27.3333C17.0545 27.3333 14.6667 24.9455 14.6667 22C14.6667 19.0545 17.0545 16.6667 20 16.6667C22.9455 16.6667 25.3333 19.0545 25.3333 22C25.3333 24.9455 22.9455 27.3333 20 27.3333ZM20 13.7838C15.4623 13.7838 11.7838 17.4623 11.7838 22C11.7838 26.5377 15.4623 30.2162 20 30.2162C24.5377 30.2162 28.2162 26.5377 28.2162 22C28.2162 17.4623 24.5377 13.7838 20 13.7838Z" fill="url(#paint1_linear_5_304)"/>
</g>
<g filter="url(#filter2_d_5_304)">
<path fill-rule="evenodd" clip-rule="evenodd" d="M30.4609 13.4592C30.4609 14.5196 29.6012 15.3791 28.5408 15.3791C27.4805 15.3791 26.6208 14.5196 26.6208 13.4592C26.6208 12.3988 27.4805 11.5391 28.5408 11.5391C29.6012 11.5391 30.4609 12.3988 30.4609 13.4592Z" fill="url(#paint2_linear_5_304)"/>
</g>
<defs>
<filter id="filter0_d_5_304" x="0" y="0" width="40" height="40" filterUnits="userSpaceOnUse" color-interpolation-filters="sRGB">
<feFlood flood-opacity="0" result="BackgroundImageFix"/>
<feColorMatrix in="SourceAlpha" type="matrix" values="0 0 0 0 0 0 0 0 0 0 0 0 0 0 0 0 0 0 127 0" result="hardAlpha"/>
<feOffset dy="-2"/>
<feGaussianBlur stdDeviation="2"/>
<feColorMatrix type="matrix" values="0 0 0 0 1 0 0 0 0 1 0 0 0 0 1 0 0 0 1 0"/>
<feBlend mode="normal" in2="BackgroundImageFix" result="effect1_dropShadow_5_304"/>
<feBlend mode="normal" in="SourceGraphic" in2="effect1_dropShadow_5_304" result="shape"/>
</filter>
<filter id="filter1_d_5_304" x="7.78379" y="7.78378" width="24.4324" height="24.4324" filterUnits="userSpaceOnUse" color-interpolation-filters="sRGB">
<feFlood flood-opacity="0" result="BackgroundImageFix"/>
<feColorMatrix in="SourceAlpha" type="matrix" values="0 0 0 0 0 0 0 0 0 0 0 0 0 0 0 0 0 0 127 0" result="hardAlpha"/>
<feOffset dy="-2"/>
<feGaussianBlur stdDeviation="2"/>
<feColorMatrix type="matrix" values="0 0 0 0 1 0 0 0 0 1 0 0 0 0 1 0 0 0 1 0"/>
<feBlend mode="normal" in2="BackgroundImageFix" result="effect1_dropShadow_5_304"/>
<feBlend mode="normal" in="SourceGraphic" in2="effect1_dropShadow_5_304" result="shape"/>
</filter>
<filter id="filter2_d_5_304" x="22.6208" y="5.53914" width="11.84" height="11.84" filterUnits="userSpaceOnUse" color-interpolation-filters="sRGB">
<feFlood flood-opacity="0" result="BackgroundImageFix"/>
<feColorMatrix in="SourceAlpha" type="matrix" values="0 0 0 0 0 0 0 0 0 0 0 0 0 0 0 0 0 0 127 0" result="hardAlpha"/>
<feOffset dy="-2"/>
<feGaussianBlur stdDeviation="2"/>
<feColorMatrix type="matrix" values="0 0 0 0 1 0 0 0 0 1 0 0 0 0 1 0 0 0 1 0"/>
<feBlend mode="normal" in2="BackgroundImageFix" result="effect1_dropShadow_5_304"/>
<feBlend mode="normal" in="SourceGraphic" in2="effect1_dropShadow_5_304" result="shape"/>
</filter>
<linearGradient id="paint0_linear_5_304" x1="20" y1="54" x2="52" y2="22" gradientUnits="userSpaceOnUse">
<stop stop-color="#FFD522"/>
<stop offset="0.497382" stop-color="#F1000B"/>
<stop offset="1" stop-color="#B900B3"/>
</linearGradient>
<linearGradient id="paint1_linear_5_304" x1="20" y1="38.4324" x2="36.4324" y2="22" gradientUnits="userSpaceOnUse">
<stop stop-color="#FFD522"/>
<stop offset="0.497382" stop-color="#F1000B"/>
<stop offset="1" stop-color="#B900B3"/>
</linearGradient>
<linearGradient id="paint2_linear_5_304" x1="28.5409" y1="17.2991" x2="32.3809" y2="13.4591" gradientUnits="userSpaceOnUse">
<stop stop-color="#FFD522"/>
<stop offset="0.497382" stop-color="#F1000B"/>
<stop offset="1" stop-color="#B900B3"/>
</linearGradient>
</defs>
</svg>
