<svg width="32" height="32" viewBox="0 0 32 32" fill="none" xmlns="http://www.w3.org/2000/svg">
<g filter="url(#filter0_d_5_261)">
<path d="M27.9979 30H23.0287V22.2045C23.0287 20.3455 22.9956 17.9525 20.4443 17.9525C17.8561 17.9525 17.4601 19.9778 17.4601 22.0691V29.9994H12.4911V13.9686H17.2614V16.1594H17.3283C18.2996 14.4958 20.1122 13.4985 22.035 13.57C27.0713 13.57 28 16.8885 28 21.2058L27.9979 30Z" fill="#0A66C2"/>
</g>
<g filter="url(#filter1_d_5_261)">
<path d="M6.88427 11.7773C6.88397 11.7773 6.88382 11.7773 6.88367 11.7773C5.30173 11.7773 4 10.4734 4 8.88873C4 7.30401 5.30173 6 6.88367 6C8.46546 6 9.76704 7.30371 9.76734 8.88813C9.76734 8.88828 9.76734 8.88843 9.76734 8.88873C9.76734 10.4731 8.46591 11.7772 6.88427 11.7773Z" fill="#0A66C2"/>
</g>
<g filter="url(#filter2_d_5_261)">
<path d="M9.36878 30H4.39451V13.9687H9.36878V30Z" fill="#0A66C2"/>
</g>
<defs>
<filter id="filter0_d_5_261" x="8.49111" y="7.56638" width="23.5089" height="24.4336" filterUnits="userSpaceOnUse" color-interpolation-filters="sRGB">
<feFlood flood-opacity="0" result="BackgroundImageFix"/>
<feColorMatrix in="SourceAlpha" type="matrix" values="0 0 0 0 0 0 0 0 0 0 0 0 0 0 0 0 0 0 127 0" result="hardAlpha"/>
<feOffset dy="-2"/>
<feGaussianBlur stdDeviation="2"/>
<feColorMatrix type="matrix" values="0 0 0 0 1 0 0 0 0 1 0 0 0 0 1 0 0 0 1 0"/>
<feBlend mode="normal" in2="BackgroundImageFix" result="effect1_dropShadow_5_261"/>
<feBlend mode="normal" in="SourceGraphic" in2="effect1_dropShadow_5_261" result="shape"/>
</filter>
<filter id="filter1_d_5_261" x="0" y="0" width="13.7673" height="13.7773" filterUnits="userSpaceOnUse" color-interpolation-filters="sRGB">
<feFlood flood-opacity="0" result="BackgroundImageFix"/>
<feColorMatrix in="SourceAlpha" type="matrix" values="0 0 0 0 0 0 0 0 0 0 0 0 0 0 0 0 0 0 127 0" result="hardAlpha"/>
<feOffset dy="-2"/>
<feGaussianBlur stdDeviation="2"/>
<feColorMatrix type="matrix" values="0 0 0 0 1 0 0 0 0 1 0 0 0 0 1 0 0 0 1 0"/>
<feBlend mode="normal" in2="BackgroundImageFix" result="effect1_dropShadow_5_261"/>
<feBlend mode="normal" in="SourceGraphic" in2="effect1_dropShadow_5_261" result="shape"/>
</filter>
<filter id="filter2_d_5_261" x="0.394508" y="7.96866" width="12.9743" height="24.0313" filterUnits="userSpaceOnUse" color-interpolation-filters="sRGB">
<feFlood flood-opacity="0" result="BackgroundImageFix"/>
<feColorMatrix in="SourceAlpha" type="matrix" values="0 0 0 0 0 0 0 0 0 0 0 0 0 0 0 0 0 0 127 0" result="hardAlpha"/>
<feOffset dy="-2"/>
<feGaussianBlur stdDeviation="2"/>
<feColorMatrix type="matrix" values="0 0 0 0 1 0 0 0 0 1 0 0 0 0 1 0 0 0 1 0"/>
<feBlend mode="normal" in2="BackgroundImageFix" result="effect1_dropShadow_5_261"/>
<feBlend mode="normal" in="SourceGraphic" in2="effect1_dropShadow_5_261" result="shape"/>
</filter>
</defs>
</svg>
